_________________________  Visit us at _________________________
  
http://p2pdl.com  ____________________________  http://p2pdl.com


Starlet 2012 BRRip 720p x264 AAC - PRiSTiNE [P2PDL]

Genre: Drama
Plot: An unlikely friendship forms between 21 year-old 
Jane and the elderly Sadie after Jane discovers a hidden 
stash of money inside an object at Sadie's yard sale.
secret that haunts her.
Director: Sean Baker
Stars: Dree Hemingway, Besedka Johnson, Boonee
Rated: Not Rated

Info: 
http://www.imdb.com/title/tt2035630/

General
Complete name                  : Starlet 2012 BRRip 720p x264 AAC - PRiSTiNE.mp4
Format                         : MPEG-4
Format profile                 : Base Media
Codec ID                       : isom
File size                      : 576 MiB
Duration                       : 1h 43mn
Overall bit rate mode          : Variable
Overall bit rate               : 782 Kbps

Video
Format                         : AVC
Format/Info                    : Advanced Video Codec
Format profile                 : High 10@L4.1
Bit rate                       : 699 Kbps
Width                          : 1 280 pixels
Height                         : 536 pixels
Display aspect ratio           : 2.40:1
Frame rate mode                : Constant
Frame rate                     : 23.976 fps
Bit depth                      : 10 bits
Stream size                    : 515 MiB (89%)
Writing library                : x264 core 130 r2273 b3065e6

Audio
Format                         : AAC
Format/Info                    : Advanced Audio Codec
Bit rate mode                  : Variable
Bit rate                       : 79.8 Kbps
Channel(s)                     : 2 channels
Channel positions              : Front: L R
Sampling rate                  : 48.0 KHz / 24.0 KHz
Stream size                    : 58.8 MiB (10%)
Language                       : English

Subtitle                       : Yes (English)
Source                         : 720p.BluRay.x264-GECKOS (Thanks)

Screenshots:
 
http://www.ultraimg.com/images/qsIS.jpg 
http://www.ultraimg.com/images/ZYj0r.jpg 
http://www.ultraimg.com/images/Mhi3e.jpg 
http://www.ultraimg.com/images/f8kME.jpg 
http://www.ultraimg.com/images/wtO0f.jpg 
http://www.ultraimg.com/images/OAMHz.jpg 
http://www.ultraimg.com/images/9nfkY.jpg

----------------------------------------------------------------------------------------------------


Encoded using revolutionary 10bit encoding, which enables us to provide you more crispier 
and sharper images at small sizes, just make sure you follow our instructions without a fault.
Recommend to you to use latest version of VLC player. Install K-Lite Codec Pack or shark007 codecs
in case of any kind of problem in playback (For non-VLC Media Player users). Alternatively, install
Core AVC codecs, the fastest decoder that there is coupled with Community Center Codec Pack and play
on Windows Media Player Classic. Check sample to be sure.
Enjoy!

Encoder Notes:Looking For Early Access To Anything You Can Provide DVDScr, R5, DVDR, BluRay, Direct
Audio, Music Releases and Seedboxes. We require dedicated servers, so as to do more 
and fast releases of movies.
If You Got anything to offer please contact us at "prg@hush.com".

Face book Fan Page:   
http://www.fb.me/p2pdl